# xmcd
#
# Track frame offsets:
#	150
#	108788
#	169694
#
# Disc length: 4205 seconds
#
# Revision: 1
# Processed by: cddbd v1.5.2PL0 Copyright (c) Steve Scherf et al.
# Submitted via: audiograbber 1.83.01
#
DISCID=18106b03
DTITLE=BJNilsen and Stilluppsteypa - Man From Deep River
DYEAR=2009
DGENRE=Electronic
TTITLE0=Untitled 1
TTITLE1=Untitled 2
TTITLE2=Untitled 3
EXTD=
EXTT0=
EXTT1=
EXTT2=
PLAYORDER=
